<svg class="animated" id="freepik_stories-businessman" xmlns="http://www.w3.org/2000/svg" viewBox="0 0 500 500" version="1.1" xmlns:xlink="http://www.w3.org/1999/xlink" xmlns:svgjs="http://svgjs.com/svgjs"><style>svg#freepik_stories-businessman:not(.animated) .animable {opacity: 0;}svg#freepik_stories-businessman.animated #freepik--Character--inject-98 {animation: 1.5s Infinite  linear floating;animation-delay: 0s;}            @keyframes floating {                0% {                    opacity: 1;                    transform: translateY(0px);                }                50% {                    transform: translateY(-10px);                }                100% {                    opacity: 1;                    transform: translateY(0px);                }            }        </style><g id="freepik--background-complete--inject-98" class="animable" style="transform-origin: 250px 209.395px;"><polygon points="434 124.84 434 213.24 220.96 213.24 220.96 134.97 239.44 134.97 239.44 157.41 244.2 157.41 244.2 144.71 267.7 144.71 267.7 164.83 270.81 164.83 270.81 117.61 291.24 117.61 291.24 130.57 301.71 130.57 301.71 146.7 304.88 146.7 304.88 136.55 323.45 136.55 323.45 166.82 328.88 166.82 328.88 142.22 345.86 142.22 345.86 123.53 357.41 123.53 357.41 112.89 370.77 112.89 370.77 160.09 375.26 160.09 375.26 140.39 397.27 140.39 397.27 168.59 400.31 168.59 400.31 145.57 422.62 145.57 422.62 124.84 434 124.84" style="fill: rgb(235, 235, 235); transform-origin: 327.48px 163.065px;" id="el6vp7lka56ol" class="animable"></polygon><path d="M226.36,142.08h-3.13v-4.29h3.13Zm5.42-4.29h-3.13v4.29h3.13Zm5.42,0h-3.13v4.29h3.13Zm-10.84,6.46h-3.13v4.29h3.13Zm5.42,0h-3.13v4.29h3.13Zm5.42,0h-3.13v4.29h3.13Zm-10.84,6.46h-3.13V155h3.13Zm5.42,0h-3.13V155h3.13Zm5.42,0h-3.13V155h3.13Zm-10.84,6.45h-3.13v4.29h3.13Zm5.42,0h-3.13v4.29h3.13Zm5.42,0h-3.13v4.29h3.13Zm97.42-11.88h-3.13v3.58h3.13Zm5.42,0h-3.13v3.58H340Zm5.42,0h-3.13v3.58h3.13Zm-10.84,5.39h-3.13v3.58h3.13Zm5.42,0h-3.13v3.58H340Zm5.42,0h-3.13v3.58h3.13Zm-10.84,5.39h-3.13v3.58h3.13Zm5.42,0h-3.13v3.58H340Zm5.42,0h-3.13v3.58h3.13Zm-10.84,5.38h-3.13V165h3.13Zm5.42,0h-3.13V165H340Zm5.42,0h-3.13V165h3.13ZM334.62,167h-3.13v3.58h3.13Zm5.42,0h-3.13v3.58H340Zm5.42,0h-3.13v3.58h3.13Zm-10.84,5.52h-3.13v3.58h3.13Zm5.42,0h-3.13v3.58H340Zm5.42,0h-3.13v3.58h3.13ZM334.62,178h-3.13v3.58h3.13Zm5.42,0h-3.13v3.58H340Zm5.42,0h-3.13v3.58h3.13Zm-10.84,5.52h-3.13v3.58h3.13Zm5.42,0h-3.13v3.58H340Zm5.42,0h-3.13v3.58h3.13Zm-80.59-36.06h-18v2.68h18Zm0,5.21h-18v2.68h18Zm0,5.2h-18v2.69h18Zm0,5.21h-18v2.69h18Zm0,5.21h-18V171h18Zm0,5.21h-18v2.68h18Zm0,5.2h-18v2.69h18Zm0,5.21h-18v2.69h18Zm129.6-41H377.92v2.69h16.55Zm0,5.21H377.92v2.69h16.55Zm0,5.21H377.92V156h16.55Zm0,5.21H377.92v2.68h16.55Zm0,5.2H377.92v2.69h16.55Zm0,5.21H377.92v2.68h16.55Zm0,5.21H377.92v2.68h16.55Zm0,5.21H377.92V182h16.55Zm0,4.94H377.92V187h16.55Zm0,5H377.92v2.69h16.55Zm0,4.95H377.92v2.68h16.55Zm0,4.95H377.92v2.68h16.55Zm0,5H377.92v2.68h16.55Zm26.76-54.91H403.75v2.69h17.48Zm0,5.21H403.75v2.69h17.48Zm0,5.21H403.75v2.68h17.48Zm0,5.21H403.75v2.68h17.48Zm0,5.2H403.75v2.69h17.48Zm0,5.21H403.75v2.68h17.48Zm0,5.21H403.75v2.68h17.48Zm0,5.21H403.75v2.68h17.48Zm0,4.66H403.75V193h17.48Zm0,4.66H403.75v2.68h17.48Zm0,4.66H403.75v2.68h17.48ZM315.87,139h-5.56v2.6h5.56Zm0,5h-5.56v2.6h5.56Zm0,5h-5.56v2.59h5.56Zm0,5h-5.56v2.59h5.56Zm0,5h-5.56v2.59h5.56Zm0,5h-5.56v2.59h5.56Zm0,5h-5.56v2.59h5.56Zm0,5h-5.56v2.59h5.56ZM323.44,139h-5.56v2.6h5.56Zm0,5h-5.56v2.6h5.56Zm0,5h-5.56v2.59h5.56Zm0,5h-5.56v2.59h5.56Zm0,5h-5.56v2.59h5.56Zm0,5h-5.56v2.59h5.56Zm0,5h-5.56v2.59h5.56Zm0,5h-5.56v2.59h5.56ZM279.7,120.33h-5.79v4.09h5.79Zm8.64,0h-5.79v4.09h5.79Zm-8.64,6h-5.79v4.09h5.79Zm8.64,0h-5.79v4.09h5.79Zm-8.64,6h-5.79v4.08h5.79Zm8.64,0h-5.79v4.08h5.79Zm-8.64,6h-5.79v4.09h5.79Zm8.64,0h-5.79v4.09h5.79Zm-8.64,6h-5.79v4.09h5.79Zm8.64,0h-5.79v4.09h5.79Zm-8.64,6h-5.79v4.09h5.79Zm8.64,0h-5.79v4.09h5.79Zm-8.64,6h-5.79v4.09h5.79Zm8.64,0h-5.79v4.09h5.79Zm-8.64,6h-5.79v4.08h5.79Zm8.64,0h-5.79v4.08h5.79Zm10.7-30h-5.79v4.08H299Zm0,6h-5.79v4.09H299Zm0,6h-5.79v4.09H299Zm0,6h-5.79v4.09H299Zm0,6h-5.79v4.09H299Zm0,6h-5.79v4.08H299Zm-19.34,5.93h-5.79v4.09h5.79Zm8.64,0h-5.79v4.09h5.79Zm10.7,0h-5.79v4.09H299Zm-19.34,5.93h-5.79v4.09h5.79Zm8.64,0h-5.79v4.09h5.79Zm10.7,0h-5.79v4.09H299Zm-19.34,5.93h-5.79v4.09h5.79Zm8.64,0h-5.79v4.09h5.79Zm10.7,0h-5.79v4.09H299Zm-19.34,5.94h-5.79v4.08h5.79Zm8.64,0h-5.79v4.08h5.79Zm10.7,0h-5.79v4.08H299ZM279.7,192h-5.79v4.09h5.79Zm8.64,0h-5.79v4.09h5.79Zm10.7,0h-5.79v4.09H299Zm52.31-65.86h-3.13v3.58h3.13Zm5.42,0h-3.13v3.58h3.13Zm-5.42,5.39h-3.13v3.58h3.13Zm5.42,0h-3.13v3.58h3.13Zm-5.42,5.38h-3.13v3.59h3.13Zm5.42,0h-3.13v3.59h3.13Zm-5.42,5.39h-3.13v3.58h3.13Zm5.42,0h-3.13v3.58h3.13Zm-5.42,5.52h-3.13v3.58h3.13Zm5.42,0h-3.13v3.58h3.13Zm-5.42,5.52h-3.13v3.58h3.13Zm5.42,0h-3.13v3.58h3.13Zm-5.42,5.52h-3.13v3.58h3.13Zm5.42,0h-3.13v3.58h3.13Zm-5.42,5.52h-3.13V168h3.13Zm5.42,0h-3.13V168h3.13ZM351.35,170h-3.13v3.58h3.13Zm5.42,0h-3.13v3.58h3.13Zm-5.42,5.58h-3.13v3.58h3.13Zm5.42,0h-3.13v3.58h3.13Zm-5.42,5.58h-3.13v3.58h3.13Zm5.42,0h-3.13v3.58h3.13Zm-5.42,5.58h-3.13v3.58h3.13Zm5.42,0h-3.13v3.58h3.13Zm70.94-60h-3.13V131h3.13Zm5.42,0H430V131h3.13Zm-5.42,6.35h-3.13v4.22h3.13Zm5.42,0H430v4.22h3.13Zm-5.42,6.35h-3.13v4.21h3.13Zm5.42,0H430v4.21h3.13Zm-5.42,6.34h-3.13V150h3.13Zm5.42,0H430V150h3.13Zm-5.42,6.51h-3.13v4.21h3.13Zm5.42,0H430v4.21h3.13Zm-5.42,6.5h-3.13V163h3.13Zm5.42,0H430V163h3.13Zm-5.42,6.5h-3.13v4.22h3.13Zm5.42,0H430v4.22h3.13Zm-5.42,6.5h-3.13V176h3.13Zm5.42,0H430V176h3.13Zm-5.42,6.58h-3.13v4.21h3.13Zm5.42,0H430v4.21h3.13Zm-5.42,6.57h-3.13v4.22h3.13Zm5.42,0H430v4.22h3.13Zm-5.42,6.57h-3.13v4.22h3.13Zm5.42,0H430v4.22h3.13Zm-5.42,6.57h-3.13v4.22h3.13Zm5.42,0H430v4.22h3.13Zm-70.19-71.92h-3.13v3.58h3.13Zm5.42,0h-3.13v3.58h3.13Zm-5.42-5.52h-3.13v3.58h3.13Zm5.42,0h-3.13v3.58h3.13Zm-5.42-5.52h-3.13v3.58h3.13Zm5.42,0h-3.13v3.58h3.13Zm-5.42,16.43h-3.13v3.58h3.13Zm5.42,0h-3.13v3.58h3.13Zm-5.42,5.38h-3.13v3.59h3.13Zm5.42,0h-3.13v3.59h3.13Zm-5.42,5.39h-3.13v3.58h3.13Zm5.42,0h-3.13v3.58h3.13Zm-5.42,5.52h-3.13v3.58h3.13Zm5.42,0h-3.13v3.58h3.13Zm-5.42,5.52h-3.13v3.58h3.13Zm5.42,0h-3.13v3.58h3.13Zm-5.42,5.52h-3.13v3.58h3.13Zm5.42,0h-3.13v3.58h3.13Zm-5.42,5.52h-3.13V168h3.13Zm5.42,0h-3.13V168h3.13ZM362.94,170h-3.13v3.58h3.13Zm5.42,0h-3.13v3.58h3.13Zm-5.42,5.58h-3.13v3.58h3.13Zm5.42,0h-3.13v3.58h3.13Zm-5.42,5.58h-3.13v3.58h3.13Zm5.42,0h-3.13v3.58h3.13Zm-5.42,5.58h-3.13v3.58h3.13Zm5.42,0h-3.13v3.58h3.13Z" style="fill: rgb(255, 255, 255); transform-origin: 328.18px 161.005px;" id="ele88p9167ctc" class="animable"></path><polygon points="220.96 213.24 66.66 213.24 66.66 134.97 85.14 134.97 85.14 157.41 89.9 157.41 89.9 144.71 113.4 144.71 113.4 164.83 116.51 164.83 116.51 117.61 136.93 117.61 136.93 130.57 147.41 130.57 147.41 146.7 150.58 146.7 150.58 136.55 169.15 136.55 169.15 166.82 174.57 166.82 174.57 142.22 191.56 142.22 191.56 123.53 203.1 123.53 216.46 123.59 216.46 160.09 220.96 160.09 220.96 213.24" style="fill: rgb(235, 235, 235); transform-origin: 143.81px 165.425px;" id="el19n0duduxn2" class="animable"></polygon><path d="M72.05,142.08H68.92v-4.29h3.13Zm5.42-4.29H74.34v4.29h3.13Zm5.42,0H79.76v4.29h3.13Zm-10.84,6.46H68.92v4.29h3.13Zm5.42,0H74.34v4.29h3.13Zm5.42,0H79.76v4.29h3.13Zm-10.84,6.46H68.92V155h3.13Zm5.42,0H74.34V155h3.13Zm5.42,0H79.76V155h3.13Zm-10.84,6.45H68.92v4.29h3.13Zm5.42,0H74.34v4.29h3.13Zm5.42,0H79.76v4.29h3.13Zm97.42-11.88h-3.13v3.58h3.13Zm5.42,0H182.6v3.58h3.13Zm5.42,0H188v3.58h3.13Zm-10.84,5.39h-3.13v3.58h3.13Zm5.42,0H182.6v3.58h3.13Zm5.42,0H188v3.58h3.13Zm-10.84,5.39h-3.13v3.58h3.13Zm5.42,0H182.6v3.58h3.13Zm5.42,0H188v3.58h3.13Zm-10.84,5.38h-3.13V165h3.13Zm5.42,0H182.6V165h3.13Zm5.42,0H188V165h3.13ZM180.31,167h-3.13v3.58h3.13Zm5.42,0H182.6v3.58h3.13Zm5.42,0H188v3.58h3.13Zm-10.84,5.52h-3.13v3.58h3.13Zm5.42,0H182.6v3.58h3.13Zm5.42,0H188v3.58h3.13ZM180.31,178h-3.13v3.58h3.13Zm5.42,0H182.6v3.58h3.13Zm5.42,0H188v3.58h3.13Zm-10.84,5.52h-3.13v3.58h3.13Zm5.42,0H182.6v3.58h3.13Zm5.42,0H188v3.58h3.13Zm-80.58-36.06h-18v2.68h18Zm0,5.21h-18v2.68h18Zm0,5.2h-18v2.69h18Zm0,5.21h-18v2.69h18Zm0,5.21h-18V171h18Zm0,5.21h-18v2.68h18Zm0,5.2h-18v2.69h18Zm0,5.21h-18v2.69h18Zm51-44.93H156v2.6h5.56Zm0,5H156v2.6h5.56Zm0,5H156v2.59h5.56Zm0,5H156v2.59h5.56Zm0,5H156v2.59h5.56Zm0,5H156v2.59h5.56Zm0,5H156v2.59h5.56Zm0,5H156v2.59h5.56ZM169.13,139h-5.56v2.6h5.56Zm0,5h-5.56v2.6h5.56Zm0,5h-5.56v2.59h5.56Zm0,5h-5.56v2.59h5.56Zm0,5h-5.56v2.59h5.56Zm0,5h-5.56v2.59h5.56Zm0,5h-5.56v2.59h5.56Zm0,5h-5.56v2.59h5.56ZM125.4,120.33h-5.79v4.09h5.79Zm8.63,0h-5.79v4.09H134Zm-8.63,6h-5.79v4.09h5.79Zm8.63,0h-5.79v4.09H134Zm-8.63,6h-5.79v4.08h5.79Zm8.63,0h-5.79v4.08H134Zm-8.63,6h-5.79v4.09h5.79Zm8.63,0h-5.79v4.09H134Zm-8.63,6h-5.79v4.09h5.79Zm8.63,0h-5.79v4.09H134Zm-8.63,6h-5.79v4.09h5.79Zm8.63,0h-5.79v4.09H134Zm-8.63,6h-5.79v4.09h5.79Zm8.63,0h-5.79v4.09H134Zm-8.63,6h-5.79v4.08h5.79Zm8.63,0h-5.79v4.08H134Zm10.7-30h-5.79v4.08h5.79Zm0,6h-5.79v4.09h5.79Zm0,6h-5.79v4.09h5.79Zm0,6h-5.79v4.09h5.79Zm0,6h-5.79v4.09h5.79Zm0,6h-5.79v4.08h5.79Zm-19.33,5.93h-5.79v4.09h5.79Zm8.63,0h-5.79v4.09H134Zm10.7,0h-5.79v4.09h5.79Zm-19.33,5.93h-5.79v4.09h5.79Zm8.63,0h-5.79v4.09H134Zm10.7,0h-5.79v4.09h5.79Zm-19.33,5.93h-5.79v4.09h5.79Zm8.63,0h-5.79v4.09H134Zm10.7,0h-5.79v4.09h5.79Zm-19.33,5.94h-5.79v4.08h5.79Zm8.63,0h-5.79v4.08H134Zm10.7,0h-5.79v4.08h5.79ZM125.4,192h-5.79v4.09h5.79Zm8.63,0h-5.79v4.09H134Zm10.7,0h-5.79v4.09h5.79ZM197,126.16h-3.12v3.58H197Zm5.42,0h-3.12v3.58h3.12ZM197,131.55h-3.12v3.58H197Zm5.42,0h-3.12v3.58h3.12ZM197,136.93h-3.12v3.59H197Zm5.42,0h-3.12v3.59h3.12ZM197,142.32h-3.12v3.58H197Zm5.42,0h-3.12v3.58h3.12ZM197,147.84h-3.12v3.58H197Zm5.42,0h-3.12v3.58h3.12ZM197,153.36h-3.12v3.58H197Zm5.42,0h-3.12v3.58h3.12ZM197,158.88h-3.12v3.58H197Zm5.42,0h-3.12v3.58h3.12ZM197,164.4h-3.12V168H197Zm5.42,0h-3.12V168h3.12ZM197,170h-3.12v3.58H197Zm5.42,0h-3.12v3.58h3.12ZM197,175.56h-3.12v3.58H197Zm5.42,0h-3.12v3.58h3.12ZM197,181.14h-3.12v3.58H197Zm5.42,0h-3.12v3.58h3.12ZM197,186.72h-3.12v3.58H197Zm5.42,0h-3.12v3.58h3.12Zm6.17-60.56h-3.12v3.58h3.12Zm5.42,0h-3.12v3.58h3.12Zm-5.42,5.39h-3.12v3.58h3.12Zm5.42,0h-3.12v3.58h3.12Zm-5.42,5.38h-3.12v3.59h3.12Zm5.42,0h-3.12v3.59h3.12Zm-5.42,5.39h-3.12v3.58h3.12Zm5.42,0h-3.12v3.58h3.12Zm-5.42,5.52h-3.12v3.58h3.12Zm5.42,0h-3.12v3.58h3.12Zm-5.42,5.52h-3.12v3.58h3.12Zm5.42,0h-3.12v3.58h3.12Zm-5.42,5.52h-3.12v3.58h3.12Zm5.42,0h-3.12v3.58h3.12Zm-5.42,5.52h-3.12V168h3.12Zm5.42,0h-3.12V168h3.12ZM208.63,170h-3.12v3.58h3.12Zm5.42,0h-3.12v3.58h3.12Zm-5.42,5.58h-3.12v3.58h3.12Zm5.42,0h-3.12v3.58h3.12Zm-5.42,5.58h-3.12v3.58h3.12Zm5.42,0h-3.12v3.58h3.12Zm-5.42,5.58h-3.12v3.58h3.12Zm5.42,0h-3.12v3.58h3.12Z" style="fill: rgb(255, 255, 255); transform-origin: 141.485px 158.21px;" id="elg2q5rjh6nb6" class="animable"></path><path d="M435.9,215.14H64.1V93.63H435.9Zm-368-3.79H432.11V97.42H67.89Z" style="fill: rgb(219, 219, 219); transform-origin: 250px 154.385px;" id="elrhi7qdr59n" class="animable"></path><rect x="248.11" y="97.42" width="3.79" height="113.92" style="fill: rgb(219, 219, 219); transform-origin: 250.005px 154.38px;" id="elcwjsfg0kd2d" class="animable"></rect><polygon points="140.21 316.91 137.82 331.26 121.61 418.79 119 418.79 130.79 331.26 132.53 316.91 140.21 316.91" style="fill: rgb(219, 219, 219); transform-origin: 129.605px 367.85px;" id="el0821ans7dkhv" class="animable"></polygon><polygon points="132.53 316.91 140.21 316.91 137.82 331.26 130.79 331.26 132.53 316.91" style="fill: rgb(199, 199, 199); transform-origin: 135.5px 324.085px;" id="elia71vext79d" class="animable"></polygon><polygon points="191.12 418.79 188.5 418.79 172.29 331.26 169.9 316.91 177.59 316.91 179.33 331.26 191.12 418.79" style="fill: rgb(219, 219, 219); transform-origin: 180.51px 367.85px;" id="elq3wyy3k7ao" class="animable"></polygon><polygon points="177.59 316.91 179.33 331.26 172.29 331.26 169.9 316.91 177.59 316.91" style="fill: rgb(199, 199, 199); transform-origin: 174.615px 324.085px;" id="el9u4hbyyai9" class="animable"></polygon><polygon points="239.73 418.79 237.12 418.79 220.91 331.26 218.52 316.91 226.21 316.91 227.95 331.26 239.73 418.79" style="fill: rgb(219, 219, 219); transform-origin: 229.125px 367.85px;" id="ellu4es0g6ycl" class="animable"></polygon><polygon points="227.95 331.26 220.91 331.26 218.52 316.91 226.21 316.91 227.95 331.26" style="fill: rgb(199, 199, 199); transform-origin: 223.235px 324.085px;" id="el3fdbadyyf9a" class="animable"></polygon><polygon points="235.59 323.65 116.82 323.65 116.82 314.02 161.28 311.14 176.22 224.94 231.06 224.94 235.59 323.65" style="fill: rgb(219, 219, 219); transform-origin: 176.205px 274.295px;" id="elq0wucu8nw2" class="animable"></polygon><polygon points="235.59 323.65 229.12 323.65 224.9 224.94 231.06 224.94 235.59 323.65" style="fill: rgb(199, 199, 199); transform-origin: 230.245px 274.295px;" id="el5l6ozg388a4" class="animable"></polygon><rect x="164.9" width="1" height="51.84" style="fill: rgb(199, 199, 199); transform-origin: 165.4px 25.92px;" id="elz2jmz9owcyp" class="animable"></rect><rect x="161.87" y="47.85" width="7.06" height="7.64" style="fill: rgb(219, 219, 219); transform-origin: 165.4px 51.67px;" id="eloppg7595bkd" class="animable"></rect><path d="M179.85,79.89H151c.58-11,5.82-28.61,14.45-28.61S179.27,68.89,179.85,79.89Z" style="fill: rgb(219, 219, 219); transform-origin: 165.425px 65.585px;" id="el3nkv71dx36d" class="animable"></path><rect x="221.3" width="1" height="51.84" style="fill: rgb(199, 199, 199); transform-origin: 221.8px 25.92px;" id="elz11n621acmo" class="animable"></rect><rect x="218.27" y="47.85" width="7.06" height="7.64" style="fill: rgb(219, 219, 219); transform-origin: 221.8px 51.67px;" id="elq7v8y6hf8e" class="animable"></rect><path d="M236.25,79.89h-28.9c.58-11,5.83-28.61,14.45-28.61S235.67,68.89,236.25,79.89Z" style="fill: rgb(219, 219, 219); transform-origin: 221.8px 65.585px;" id="elzkfvt1qibl" class="animable"></path><rect x="277.7" width="1" height="51.84" style="fill: rgb(199, 199, 199); transform-origin: 278.2px 25.92px;" id="ely6xd80nm1ja" class="animable"></rect><rect x="274.67" y="47.85" width="7.06" height="7.64" style="fill: rgb(219, 219, 219); transform-origin: 278.2px 51.67px;" id="elrjn59sqa2uc" class="animable"></rect><path d="M292.65,79.89h-28.9c.59-11,5.83-28.61,14.45-28.61S292.07,68.89,292.65,79.89Z" style="fill: rgb(219, 219, 219); transform-origin: 278.2px 65.585px;" id="el9i11udnj3tk" class="animable"></path><rect x="334.1" width="1" height="51.84" style="fill: rgb(199, 199, 199); transform-origin: 334.6px 25.92px;" id="el54266a4oulh" class="animable"></rect><rect x="331.07" y="47.85" width="7.06" height="7.64" style="fill: rgb(219, 219, 219); transform-origin: 334.6px 51.67px;" id="eldytq74x7ey" class="animable"></rect><path d="M349.05,79.89h-28.9c.59-11,5.83-28.61,14.45-28.61S348.47,68.89,349.05,79.89Z" style="fill: rgb(219, 219, 219); transform-origin: 334.6px 65.585px;" id="el4usez252xud" class="animable"></path></g><g id="freepik--Shadows--inject-98" class="animable" style="transform-origin: 210.775px 456.46px;"><ellipse cx="255.51" cy="457.63" rx="129" ry="18.56" style="fill: rgb(235, 235, 235); transform-origin: 255.51px 457.63px;" id="elruibi2bz4oc" class="animable"></ellipse><ellipse cx="93.09" cy="447.46" rx="56.05" ry="10.73" style="fill: rgb(235, 235, 235); transform-origin: 93.09px 447.46px;" id="elc2bx0g7jv5l" class="animable"></ellipse></g><g id="freepik--Floor--inject-98" class="animable" style="transform-origin: 250px 418.795px;"><polygon points="34.47 418.79 88.35 418.55 142.23 418.46 250 418.3 357.77 418.46 411.65 418.55 465.53 418.79 411.65 419.04 357.77 419.13 250 419.29 142.23 419.13 88.35 419.04 34.47 418.79" style="fill: rgb(38, 50, 56); transform-origin: 250px 418.795px;" id="el58t74sh7ig" class="animable"></polygon></g><g id="freepik--Desk--inject-98" class="animable" style="transform-origin: 249.995px 343.475px;"><rect x="310.35" y="266.68" width="88.24" height="162.11" style="fill: rgb(69, 90, 100); transform-origin: 354.47px 347.735px;" id="elvvm2t9tgqu" class="animable"></rect><rect x="310.35" y="266.68" width="88.24" height="10.57" style="fill: rgb(38, 50, 56); transform-origin: 354.47px 271.965px;" id="el4dt91qtpd6t" class="animable"></rect><rect x="63.52" y="258.16" width="372.95" height="8.53" style="fill: rgb(69, 90, 100); transform-origin: 249.995px 262.425px;" id="el0tnz5o96ncp" class="animable"></rect><polygon points="82.34 266.68 82.06 277.25 78.34 428.79 71.6 428.79 71.6 266.68 82.34 266.68" style="fill: rgb(69, 90, 100); transform-origin: 76.97px 347.735px;" id="el3tn6zzx06bc" class="animable"></polygon><polygon points="71.6 266.68 82.34 266.68 82.06 277.25 71.6 277.25 71.6 266.68" style="fill: rgb(38, 50, 56); transform-origin: 76.97px 271.965px;" id="elachnqxurx8h" class="animable"></polygon><rect x="398.59" y="266.68" width="29.9" height="162.11" style="fill: rgb(55, 71, 79); transform-origin: 413.54px 347.735px;" id="elidfyta19gj" class="animable"></rect><rect x="398.59" y="266.68" width="29.9" height="10.57" style="fill: rgb(38, 50, 56); transform-origin: 413.54px 271.965px;" id="elnzb273dpfe" class="animable"></rect></g><g id="freepik--Calendar--inject-98" class="animable" style="transform-origin: 391.195px 242.382px;"><polygon points="418.97 258 377.89 258 370.71 228.19 411.79 228.19 418.97 258" style="fill: rgb(166, 166, 166); transform-origin: 394.84px 243.095px;" id="eljg63dtxwp29" class="animable"></polygon><polygon points="363.42 258 404.49 258 411.67 228.19 370.59 228.19 363.42 258" style="fill: rgb(235, 235, 235); transform-origin: 387.545px 243.095px;" id="elqqrt1ait0wk" class="animable"></polygon><path d="M406.74,232.19l-1,4.17-.06.25-1,4.33-.06.26-1,4.32-.06.26-1,4.33-.06.26-1,4.24h-33l1-4.24.06-.26,1-4.33.07-.26,1-4.32.06-.26,1-4.33.07-.25,1-4.17Zm-28.44,0-1,4.17-.06.25-1,4.33-.06.26-1,4.32-.06.26-1,4.33-.06.26-1,4.24h.27l1-4.24.06-.26,1-4.33.06-.26,1-4.32.06-.26,1-4.33.06-.25,1-4.17Zm4.7,0-1,4.17-.06.25-1,4.33-.06.26-1,4.32-.06.26-1,4.33-.06.26-1,4.24h.27l1-4.24.07-.26,1-4.33.06-.26,1-4.32.07-.26,1-4.33.06-.25,1-4.17Zm4.71,0-1,4.17-.06.25-1,4.33-.06.26-1,4.32-.06.26-1,4.33-.06.26-1,4.24h.26l1-4.24.06-.26,1-4.33.06-.26,1-4.32.06-.26,1-4.33.06-.25,1-4.17Zm4.7,0-1,4.17-.06.25-1,4.33-.06.26-1,4.32-.06.26-1,4.33-.06.26-1,4.24h.27l1-4.24.06-.26,1-4.33.07-.26,1-4.32.06-.26,1-4.33.06-.25,1-4.17Zm4.71,0-1,4.17-.06.25-1,4.33-.07.26-1,4.32-.06.26-1,4.33-.06.26-1,4.24H392l1-4.24.06-.26,1-4.33.06-.26,1-4.32.06-.26,1-4.33.06-.25,1-4.17Zm4.7,0-1,4.17-.06.25-1,4.33-.06.26-1,4.32-.06.26-1,4.33-.06.26-1,4.24h.26l1-4.24.06-.26,1-4.33.06-.26,1-4.32.06-.26,1-4.33.06-.25,1-4.17Zm-29.09,4.17-.07.25h33l.06-.25Zm-1.1,4.58-.06.26h33l.06-.26Zm-1.1,4.58-.07.26h33l.06-.26Zm-1.11,4.59-.06.26h33l.06-.26Z" style="fill: rgb(255, 255, 255); transform-origin: 387.62px 243.4px;" id="eli8c1bond00j" class="animable"></path><path d="M371.88,230.23a1.1,1.1,0,0,1-.79-.39,1.85,1.85,0,0,1-.21-1.83c.28-.93,1-1.32,1.49-1.22s.85.49.77,1.39a.26.26,0,0,1-.27.24.27.27,0,0,1-.24-.28c0-.47-.1-.79-.36-.84s-.71.22-.9.86a1.42,1.42,0,0,0,.11,1.34.5.5,0,0,0,.43.21.26.26,0,1,1,.07.51Z" style="fill: rgb(166, 166, 166); transform-origin: 371.94px 228.502px;" id="elpv0ccx9x7e9" class="animable"></path><path d="M375,230.23a1.1,1.1,0,0,1-.79-.39A1.88,1.88,0,0,1,374,228c.29-.93,1-1.32,1.49-1.22s.85.49.78,1.39a.27.27,0,0,1-.28.24.25.25,0,0,1-.23-.28c0-.47-.1-.79-.36-.84s-.71.22-.9.86a1.42,1.42,0,0,0,.1,1.34.52.52,0,0,0,.44.21.26.26,0,1,1,.07.51Z" style="fill: rgb(166, 166, 166); transform-origin: 375.065px 228.497px;" id="elz17sytpegrt" class="animable"></path><path d="M378.21,230.23a1.12,1.12,0,0,1-.8-.39,1.88,1.88,0,0,1-.2-1.83c.28-.93,1-1.32,1.49-1.22s.85.49.77,1.39a.26.26,0,1,1-.51,0c0-.47-.1-.79-.36-.84s-.71.22-.9.86a1.42,1.42,0,0,0,.1,1.34.53.53,0,0,0,.44.21.26.26,0,1,1,.07.51Z" style="fill: rgb(166, 166, 166); transform-origin: 378.27px 228.517px;" id="elr9sdf3l53t" class="animable"></path><path d="M381.37,230.23a1.1,1.1,0,0,1-.79-.39,1.88,1.88,0,0,1-.21-1.83c.28-.93,1-1.32,1.49-1.22s.85.49.78,1.39a.27.27,0,0,1-.28.24.25.25,0,0,1-.23-.28c0-.47-.1-.79-.36-.84s-.71.22-.91.86a1.45,1.45,0,0,0,.11,1.34.52.52,0,0,0,.44.21.26.26,0,0,1,.07.51Z" style="fill: rgb(166, 166, 166); transform-origin: 381.436px 228.502px;" id="el440bs18qqy4" class="animable"></path><path d="M384.53,230.23a1.1,1.1,0,0,1-.79-.39,1.86,1.86,0,0,1-.2-1.83c.28-.93,1-1.32,1.49-1.22s.85.49.77,1.39a.26.26,0,1,1-.51,0c0-.47-.1-.79-.36-.84s-.71.22-.9.86a1.42,1.42,0,0,0,.1,1.34.53.53,0,0,0,.44.21.26.26,0,1,1,.07.51Z" style="fill: rgb(166, 166, 166); transform-origin: 384.599px 228.517px;" id="eluqanb4az93t" class="animable"></path><path d="M387.7,230.23a1.1,1.1,0,0,1-.79-.39,1.85,1.85,0,0,1-.21-1.83c.28-.93,1-1.32,1.49-1.22s.85.49.78,1.39a.27.27,0,0,1-.28.24.27.27,0,0,1-.24-.28c0-.47-.09-.79-.35-.84s-.71.22-.91.86a1.42,1.42,0,0,0,.11,1.34.5.5,0,0,0,.43.21.26.26,0,1,1,.07.51Z" style="fill: rgb(166, 166, 166); transform-origin: 387.764px 228.502px;" id="eleffj6yxm36" class="animable"></path><path d="M390.86,230.23a1.1,1.1,0,0,1-.79-.39,1.86,1.86,0,0,1-.2-1.83c.28-.93,1-1.32,1.49-1.22s.85.49.77,1.39a.26.26,0,1,1-.51,0c0-.47-.1-.79-.36-.84s-.71.22-.9.86a1.42,1.42,0,0,0,.1,1.34.52.52,0,0,0,.44.21.26.26,0,1,1,.07.51Z" style="fill: rgb(166, 166, 166); transform-origin: 390.929px 228.517px;" id="el8hgizy0x49j" class="animable"></path><path d="M394,230.23a1.1,1.1,0,0,1-.79-.39A1.85,1.85,0,0,1,393,228c.28-.93,1-1.32,1.49-1.22s.85.49.77,1.39a.26.26,0,0,1-.27.24.27.27,0,0,1-.24-.28c0-.47-.1-.79-.36-.84s-.71.22-.9.86a1.42,1.42,0,0,0,.11,1.34.5.5,0,0,0,.43.21.26.26,0,1,1,.07.51Z" style="fill: rgb(166, 166, 166); transform-origin: 394.059px 228.497px;" id="el6so1x6gy42w" class="animable"></path><path d="M397.19,230.23a1.1,1.1,0,0,1-.79-.39,1.88,1.88,0,0,1-.21-1.83c.29-.93,1-1.32,1.49-1.22s.85.49.78,1.39a.27.27,0,0,1-.28.24.26.26,0,0,1-.23-.28c0-.47-.1-.79-.36-.84s-.71.22-.9.86a1.42,1.42,0,0,0,.1,1.34.52.52,0,0,0,.44.21.26.26,0,1,1,.07.51Z" style="fill: rgb(166, 166, 166); transform-origin: 397.256px 228.502px;" id="eljmwdlmpot7" class="animable"></path><path d="M400.36,230.23a1.12,1.12,0,0,1-.8-.39,1.88,1.88,0,0,1-.2-1.83c.28-.93,1-1.32,1.49-1.22s.85.49.77,1.39a.26.26,0,1,1-.51,0c0-.47-.1-.79-.36-.84s-.71.22-.9.86a1.42,1.42,0,0,0,.1,1.34.53.53,0,0,0,.44.21.26.26,0,1,1,.07.51Z" style="fill: rgb(166, 166, 166); transform-origin: 400.42px 228.517px;" id="elx4g6wf5126g" class="animable"></path><path d="M403.52,230.23a1.1,1.1,0,0,1-.79-.39,1.88,1.88,0,0,1-.21-1.83c.28-.93,1-1.32,1.49-1.22s.85.49.78,1.39a.27.27,0,0,1-.28.24.25.25,0,0,1-.23-.28c0-.47-.1-.79-.36-.84s-.71.22-.91.86a1.45,1.45,0,0,0,.11,1.34.52.52,0,0,0,.44.21.26.26,0,0,1,.29.22.27.27,0,0,1-.22.29Z" style="fill: rgb(166, 166, 166); transform-origin: 403.586px 228.502px;" id="el9o9upkmwl2s" class="animable"></path><path d="M406.68,230.23a1.1,1.1,0,0,1-.79-.39,1.86,1.86,0,0,1-.2-1.83c.28-.93,1-1.32,1.49-1.22s.85.49.77,1.39a.26.26,0,1,1-.51,0c0-.47-.1-.79-.36-.84s-.71.22-.9.86a1.42,1.42,0,0,0,.1,1.34.53.53,0,0,0,.44.21.26.26,0,1,1,.07.51Z" style="fill: rgb(166, 166, 166); transform-origin: 406.749px 228.517px;" id="el8fpwo6pusb" class="animable"></path><path d="M409.85,230.23a1.1,1.1,0,0,1-.79-.39,1.85,1.85,0,0,1-.21-1.83c.28-.93,1-1.32,1.49-1.22s.85.49.78,1.39a.27.27,0,0,1-.28.24.27.27,0,0,1-.24-.28c0-.47-.09-.79-.35-.84s-.71.22-.91.86a1.42,1.42,0,0,0,.11,1.34.5.5,0,0,0,.43.21.26.26,0,0,1,.29.22.25.25,0,0,1-.22.29Z" style="fill: rgb(166, 166, 166); transform-origin: 409.914px 228.502px;" id="el6tmnwm4g4iv" class="animable"></path></g><g id="freepik--Device--inject-98" class="animable" style="transform-origin: 120.325px 241.1px;"><rect x="111.4" y="255.8" width="51.4" height="2.31" style="fill: rgb(55, 71, 79); transform-origin: 137.1px 256.955px;" id="eldyfwbbqte4q" class="animable"></rect><rect x="111.4" y="255.8" width="25.87" height="2.31" style="fill: rgb(38, 50, 56); transform-origin: 124.335px 256.955px;" id="el88tdjo9izr" class="animable"></rect><polygon points="134.49 258.11 84.4 258.11 77.85 224.09 127.94 224.09 134.49 258.11" style="fill: rgb(55, 71, 79); transform-origin: 106.17px 241.1px;" id="elbi16lyq7gui" class="animable"></polygon><path d="M109.22,241.1a2.75,2.75,0,0,1-2.78,3.05,3.4,3.4,0,0,1-3.32-3.05,2.75,2.75,0,0,1,2.78-3A3.39,3.39,0,0,1,109.22,241.1Z" style="fill: rgb(255, 255, 255); transform-origin: 106.173px 241.125px;" id="el83395qda3m" class="animable"></path></g><g id="freepik--Character--inject-98" class="animable animator-active" style="transform-origin: 239.5px 277.845px;"><path d="M321.34,460c-2.3.74-67.67-.1-70.13-1.72-1-.59-1.38-10.13-1.57-21.66,0-.12,0-.24,0-.36,0-2.38-.07-4.83-.08-7.31,0-.34,0-.68,0-1L252.71,394l43.73.44-4.31,33.59-.05,1.33-.27,7,0,.72s24.87,11.52,27.4,13.58S323.63,459.29,321.34,460Z" style="fill: rgb(173, 99, 89); transform-origin: 285.965px 427.136px;" id="elxx76zd8lb5n" class="animable"></path><path d="M321.34,460c-2.3.74-67.67-.1-70.13-1.72-1-.59-1.38-10.13-1.57-21.66,0-.12,0-.24,0-.36,0-2.38-.07-4.83-.08-7.31,0-.34,0-.68,0-1l42.59.12-.05,1.33-.27,7,0,.72s24.87,11.52,27.4,13.58S323.63,459.29,321.34,460Z" style="fill: rgb(235, 235, 235); transform-origin: 285.968px 444.111px;" id="el83vbf8w0vk" class="animable"></path><path d="M321.34,460c-1.18.38-18.94.34-36.3,0-3.49-.07-7-.15-10.27-.24-12.38-.34-22.61-.85-23.56-1.47s-1.37-9.86-1.56-21.18c0-.16,0-.32,0-.48s0-.25,0-.37h.05l42.13.08,0,.72s24.88,11.51,27.4,13.57S323.63,459.29,321.34,460Z" style="fill: rgb(166, 166, 166); transform-origin: 286.012px 448.265px;" id="ellnaps9kpfto" class="animable"></path><path d="M320.63,457.48c-11-.41-55.49-1-66.41-.61-.09,0-.09.06,0,.07,10.91.64,55.39.91,66.41.72C320.86,457.66,320.86,457.49,320.63,457.48Z" style="fill: rgb(38, 50, 56); transform-origin: 287.477px 457.231px;" id="elfbwnaqmsur" class="animable"></path><path d="M296.51,436.54c-4.33-.87-9.64-.27-13,2.77-.13.12,0,.3.19.26a61.61,61.61,0,0,1,12.78-2.49A.27.27,0,0,0,296.51,436.54Z" style="fill: rgb(38, 50, 56); transform-origin: 290.112px 437.876px;" id="elnrfeob7jwnd" class="animable"></path><path d="M299.61,438.46c-4.32-.86-9.64-.27-13,2.78-.13.12,0,.3.18.26A61.06,61.06,0,0,1,299.59,439,.28.28,0,0,0,299.61,438.46Z" style="fill: rgb(38, 50, 56); transform-origin: 293.182px 439.803px;" id="ela3twq1n65yr" class="animable"></path><path d="M302.72,440.39c-4.33-.87-9.64-.27-13,2.78-.13.12,0,.3.18.26a60.33,60.33,0,0,1,12.78-2.49A.28.28,0,0,0,302.72,440.39Z" style="fill: rgb(38, 50, 56); transform-origin: 296.299px 441.731px;" id="el5yqygib5vfr" class="animable"></path><path d="M285,460c-3.49-.07-7-.15-10.27-.24-12.38-.34-22.61-.85-23.56-1.47s-1.37-9.86-1.56-21.18c0-.16,0-.32,0-.48s0-.25,0-.37h.05C255.45,440.32,275.79,453.86,285,460Z" style="fill: rgb(38, 50, 56); transform-origin: 267.305px 448.13px;" id="eled70enwlrg6" class="animable"></path><path d="M294.68,436.5H247.6s9.48-110,9.11-111.88c-.47-2.46-3.25-13.59-6.95-28.13-1.16-4.55-2.41-9.43-3.71-14.49-3.51-13.68-7.38-28.63-10.75-41.64-5.06-19.49-9-34.63-9-34.63h39.9s4.65,14.74,10.51,33.92c9.55,31.17,22.31,74.07,23.57,84.5C302.31,341,294.68,436.5,294.68,436.5Z" style="fill: rgb(55, 71, 79); transform-origin: 263.462px 321.115px;" id="elj05w0q9bkvk" class="animable"></path><path d="M292.6,428.47c-7.19-.15-5.13-.21-12.32-.28-3.52,0-26.64-.24-29.93.31-.07,0-.07.13,0,.15,3.29.54,26.41.34,29.93.3,7.19-.06,5.13-.12,12.32-.27C292.73,428.67,292.73,428.47,292.6,428.47Z" style="fill: rgb(38, 50, 56); transform-origin: 271.498px 428.579px;" id="elx0atzd3k6vs" class="animable"></path><path d="M265.57,317.9c-1.54-6.81-3.85-13.48-5.86-20.16q-6.12-20.36-12.31-40.69-3.09-10.17-6.21-20.34c-1.06-3.42-2.11-6.84-3.18-10.25s-2.24-6.66-3.18-10c-.39-1.37-.6-.62-.11,1.12,1,3.52,2,7,3,10.53q3,10.41,6.12,20.8,6.12,20.7,12.35,41.35L262.43,311A84.48,84.48,0,0,1,265,321a46.35,46.35,0,0,1,.42,10.72c-.45,7.21-1.29,14.4-1.95,21.59s-1.34,14.4-2,21.6q-2,21.5-3.95,43c-.16,1.81-.32,3.63-.46,5.45,0,.61.87.56.94,0,1.55-14.17,2.74-28.39,4.07-42.59s2.65-28.24,4-42.37c.33-3.54.7-7.09.71-10.66A44.17,44.17,0,0,0,265.57,317.9Z" style="fill: rgb(38, 50, 56); transform-origin: 250.607px 319.775px;" id="elr1b1g1sy35b" class="animable"></path><path d="M261.66,205.73c-2.77,21.43-8.05,61.61-11.9,90.76-9-35.32-23.47-90.76-23.47-90.76Z" style="fill: rgb(38, 50, 56); transform-origin: 243.975px 251.11px;" id="elpo13ej8stye" class="animable"></path><path d="M271.46,460.65c-2.29.75-67.66.14-70.13-1.46-1-.6-1.42-10.13-1.65-21.66,0-.12,0-.24,0-.36,0-2.38-.09-4.82-.1-7.3,0-.35,0-.69,0-1-.15-16.64,1-33.91,1-33.91l42.73.28-1.19,33.6,0,1.33-.24,6.95,0,.72s24.92,11.42,27.45,13.48S273.75,459.92,271.46,460.65Z" style="fill: rgb(173, 99, 89); transform-origin: 236.028px 427.964px;" id="elidogsbsmess" class="animable"></path><path d="M271.46,460.65c-2.29.75-67.66.14-70.13-1.46-1-.6-1.42-10.13-1.65-21.66,0-.12,0-.24,0-.36,0-2.38-.09-4.82-.1-7.3,0-.35,0-.69,0-1l42.59,0,0,1.33-.24,6.95,0,.72s24.92,11.42,27.45,13.48S273.75,459.92,271.46,460.65Z" style="fill: rgb(235, 235, 235); transform-origin: 236.041px 444.919px;" id="el15ykzd2fbtg" class="animable"></path><path d="M271.46,460.65c-2.29.75-67.66.14-70.13-1.46-1-.6-1.42-10.13-1.65-21.66,0-.12,0-.24,0-.36l42.18-.08,0,.72s24.92,11.42,27.45,13.48S273.75,459.92,271.46,460.65Z" style="fill: rgb(166, 166, 166); transform-origin: 236.083px 449.029px;" id="ely85sdnpr5z" class="animable"></path><path d="M270.75,458.11c-11-.37-55.49-.84-66.41-.37-.09,0-.09.07,0,.07,10.91.61,55.38.71,66.41.48C271,458.29,271,458.12,270.75,458.11Z" style="fill: rgb(38, 50, 56); transform-origin: 237.605px 457.973px;" id="elwg11riqrzk" class="animable"></path><path d="M246.55,437.26c-4.33-.85-9.64-.24-13,2.82-.13.12,0,.3.18.26a61,61,0,0,1,12.77-2.54A.27.27,0,0,0,246.55,437.26Z" style="fill: rgb(38, 50, 56); transform-origin: 240.146px 438.628px;" id="elm4ea0st6xs" class="animable"></path><path d="M249.66,439.17c-4.33-.85-9.64-.23-13,2.83-.13.12,0,.3.18.25a61.56,61.56,0,0,1,12.78-2.53A.28.28,0,0,0,249.66,439.17Z" style="fill: rgb(38, 50, 56); transform-origin: 243.239px 440.54px;" id="elm9we507dhy" class="animable"></path><path d="M252.77,441.09c-4.33-.85-9.64-.24-13,2.82-.13.12,0,.3.18.26a60.4,60.4,0,0,1,12.78-2.53A.28.28,0,0,0,252.77,441.09Z" style="fill: rgb(38, 50, 56); transform-origin: 246.349px 442.458px;" id="el9wxtsx34uhv" class="animable"></path><path d="M264.9,205.73s-.92,19.09-5.29,34.21c-.35,1.25-.73,2.48-1.14,3.66a71,71,0,0,0-11.5,5.91s-.46,15.36-.92,32.49c-.51,19.15-1,40.51-.93,45C245.52,344,243,437.19,243,437.19l-47.07.19s8.51-104.08,8.45-110.29c-.09-10,2.28-54.09,4.11-86.26,1.12-19.82,2-35.1,2-35.1Z" style="fill: rgb(55, 71, 79); transform-origin: 230.415px 321.555px;" id="elfmju1gek4he" class="animable"></path><path d="M241.39,428.82c-7.19-.12-5.13-.19-12.32-.23-3.52,0-26.64-.12-29.93.44a.07.07,0,0,0,0,.14c3.29.54,26.42.24,29.94.19,7.19-.1,5.12-.15,12.31-.33C241.52,429,241.52,428.82,241.39,428.82Z" style="fill: rgb(38, 50, 56); transform-origin: 220.279px 429.034px;" id="el7mvyfp1o82k" class="animable"></path><path d="M214.49,212.55c-.87,26.26-1.79,52.53-3,78.77s-2.77,52.67-5,78.95c-1.23,14.68-2.39,35.33-4,50,0,.1.14.14.15,0,3.43-26,5.34-58.26,7-84.48s2.83-52.47,3.72-78.72c.5-14.84.89-29.7,1.34-44.55C214.82,212.32,214.49,212.34,214.49,212.55Z" style="fill: rgb(38, 50, 56); transform-origin: 208.608px 316.371px;" id="elf7r4pij4ogq" class="animable"></path><path d="M260.43,242.46a87.5,87.5,0,0,0-13.46,7c-.17.1,0,.37.14.28,4.54-2.21,9.18-4.33,13.59-6.79A.3.3,0,0,0,260.43,242.46Z" style="fill: rgb(38, 50, 56); transform-origin: 253.834px 246.108px;" id="elj80mpffoaj" class="animable"></path><path d="M276.7,239.65l-17.09.29-24.31.42-26.81.47c1.12-19.82,2-35.1,2-35.1h55.66S270.84,220.47,276.7,239.65Z" style="fill: rgb(38, 50, 56); transform-origin: 242.595px 223.28px;" id="elyhy9lyuea5" class="animable"></path><path d="M302.28,109.65l-6.76,29.58c-.29.86.16,1.56,1,1.54l15.17-.34a2.45,2.45,0,0,0,2.07-1.61l6.76-29.57c.3-.87-.15-1.56-1-1.55l-15.17.34A2.47,2.47,0,0,0,302.28,109.65Z" style="fill: rgb(166, 166, 166); transform-origin: 308.022px 124.235px;" id="elaezpkvt804g" class="animable"></path><path d="M304.09,109.59l-6.77,29.58c-.29.87.16,1.56,1,1.54l15.17-.33a2.45,2.45,0,0,0,2.07-1.61l6.76-29.58c.3-.87-.15-1.56-1-1.54l-15.17.33A2.45,2.45,0,0,0,304.09,109.59Z" style="fill: rgb(219, 219, 219); transform-origin: 309.822px 124.18px;" id="el5mqsoba6ypr" class="animable"></path><circle cx="306.99" cy="110.85" r="1.29" style="fill: rgb(69, 90, 100); transform-origin: 306.99px 110.85px;" id="elj9rzapm2g6r" class="animable"></circle><path d="M254.35,155.27c8.83,18.17,28.43,41.68,36.41,41.67,3.8,0,10.59.82,15.51-3.61,10.75-9.66,19.59-28,21.31-38.43.61-3.72-17.53-11.51-20.16-8.46-6.14,7.15-13.2,21.12-14.31,21.05-4.09-.25-20.23-13.34-31.5-22.56C247.92,133.74,250.83,148,254.35,155.27Z" style="fill: rgb(173, 99, 89); transform-origin: 289.507px 168.896px;" id="elmwhc65vcpes" class="animable"></path><path d="M327.77,135.73c-2-7.5-3.67-9.11-2-16.34,1.1-4.75-1.46-7.48-4.77-3.64-5.4,6.28-4.84,16.5-3.62,20Z" style="fill: rgb(173, 99, 89); transform-origin: 322.168px 124.841px;" id="elevs0ew2e0kn" class="animable"></path><path d="M326.74,158.14s3.22-10.53,1.87-18.74c-.93-5.67-4.34-17.79-20.34-24-3.79-1.47-10.25-.88-4.92,3.78,3.78,3.31,7.18,4.26,9,6.58,0,0-8.12,1.73-9.44,5.59a74.54,74.54,0,0,0-2.75,10.34,16.27,16.27,0,0,0,1.89.68s-1.13,3.66,1.63,8.78Z" style="fill: rgb(173, 99, 89); transform-origin: 314.55px 136.413px;" id="el96x8feisfa" class="animable"></path><path d="M326.86,134.13c-2.33-1.92-7.32-5.91-12.54-7.74-5.8-2-17.51-4.42-19-.12-1.07,3.15,3.33,4.44,3.33,4.44s-5.05,0-5.4,3.1c-.32,2.79,3.14,3.59,3.14,3.59s-3.06.55-2.84,3.29c.25,3.3,6.62,1.6,9.76,4.72C304,146.11,326.86,134.13,326.86,134.13Z" style="fill: rgb(173, 99, 89); transform-origin: 310.045px 134.659px;" id="elclilemmexqc" class="animable"></path><path d="M313.18,132.87a24.47,24.47,0,0,0-14.42-2.24c-.12,0-.17.13-.05.13a60.3,60.3,0,0,1,14.46,2.17S313.21,132.89,313.18,132.87Z" style="fill: rgb(38, 50, 56); transform-origin: 305.916px 131.645px;" id="elwyc73eophsm" class="animable"></path><path d="M311,138.66c-2.27-1-9-2.62-14.53-1.37-.12,0-.16.13-.05.13a64.61,64.61,0,0,1,14.57,1.3S311,138.68,311,138.66Z" style="fill: rgb(38, 50, 56); transform-origin: 303.678px 137.778px;" id="elf3wz0yip8q7" class="animable"></path><path d="M327.85,162.53s-14.42,29.37-23,32.86-13.7,2.8-16.9,2.36a8.64,8.64,0,0,1-3.4-1.59c-8.74-6.07-24.52-27.74-31-39.95-4.84-9.18-4.42-17.55,2.77-15a24,24,0,0,1,6.66,4.14c13.3,10.86,28.71,21.17,29.43,20.78s8.14-12.47,8.14-12.47Z" style="fill: rgb(55, 71, 79); transform-origin: 289.097px 169.431px;" id="el5crricp51kj" class="animable"></path><path d="M284.59,196.16c-8.74-6.07-24.52-27.74-31-39.95-4.84-9.18-4.42-17.55,2.77-15C260.14,148.47,276.51,180,284.59,196.16Z" style="fill: rgb(38, 50, 56); transform-origin: 267.487px 168.453px;" id="el3zqgkc093j1" class="animable"></path><path d="M324.26,167.89c-1-.53-2.07-.87-3.1-1.31s-2.08-.83-3.13-1.23q-3-1.12-6.11-2.19L305.8,161c-2.11-.73-4.23-1.58-6.39-2.14a.07.07,0,1,0-.05.14c2,1,4.18,1.66,6.27,2.45l6.18,2.33c2.06.77,4.13,1.53,6.21,2.26,1,.36,2,.71,3.08,1a31.31,31.31,0,0,0,3.13.95C324.32,168.05,324.33,167.93,324.26,167.89Z" style="fill: rgb(38, 50, 56); transform-origin: 311.808px 163.431px;" id="eljnartghf5v" class="animable"></path><path d="M272.94,222.35c-1.08,1.07-67.42-2.44-67.74-2.87-.87-1.17,18.83-69.18,34.39-80.35,3.34-2.4,15.62-1.35,17.27-.6,1.87.84,6.79,10.29,8.85,17.88C269.83,171.61,273.88,221.41,272.94,222.35Z" style="fill: rgb(235, 235, 235); transform-origin: 239.125px 180.097px;" id="elal2p77tgu5" class="animable"></path><polygon points="250.72 154.11 254.09 148.83 257.82 153.38 256.62 157.65 252.67 157.94 250.72 154.11" style="fill: rgb(64, 123, 255); transform-origin: 254.27px 153.385px;" id="el0cs1mqavg2f" class="animable"></polygon><polygon points="252.67 157.94 248.4 201.91 255.87 216.94 261.05 200.77 256.62 157.65 252.67 157.94" style="fill: rgb(64, 123, 255); transform-origin: 254.725px 187.295px;" id="elksn32wgwyrn" class="animable"></polygon><path d="M278.51,237.63s-8.74-.44-20.43-1.07c-.77-4.15-2.4-14.28-2.57-14.28-.13.22-3.38,10-4.44,13.91-11.35-.63-24.2-1.35-34.32-2s-17.66-1.24-18.05-1.55,5.35-13.85,6-15.85c5-15.82,13.87-47.23,20.59-58.89a109.23,109.23,0,0,1,10.22-15.11c.39-.45.74-.87,1.08-1.25L239,138.8l18,37.61c.06-.72,2.46-34.74,2.46-34.74a89.9,89.9,0,0,1,11,26.8c4,17.76,3.69,43.53,4.71,55.85C275.18,224.32,278.51,237.38,278.51,237.63Z" style="fill: rgb(55, 71, 79); transform-origin: 238.596px 188.215px;" id="eletla5q828no" class="animable"></path><path d="M235.5,142.79l-18.75,91.4c-10.21-.67-17.66-1.24-18.05-1.55s5.35-13.85,6-15.85c5-15.82,13.87-47.23,20.59-58.89A109.23,109.23,0,0,1,235.5,142.79Z" style="fill: rgb(38, 50, 56); transform-origin: 217.091px 188.49px;" id="eljj7x05n1hl" class="animable"></path><path d="M257,176.41c.09,3.83.06,7.65,0,11.48s-.17,7.65-.25,11.47-.28,7.64-.48,11.46l-.32,5.73c-.15,1.91-.26,3.82-.43,5.73-.06-1.92,0-3.83-.06-5.74l0-5.74c0-3.83.17-7.65.25-11.47s.28-7.64.48-11.46S256.64,180.23,257,176.41Z" style="fill: rgb(38, 50, 56); transform-origin: 256.258px 199.345px;" id="elrqqqir07ipg" class="animable"></path><circle cx="252.63" cy="189.88" r="1.91" style="fill: rgb(38, 50, 56); transform-origin: 252.63px 189.88px;" id="elxdf02lm8pvj" class="animable"></circle><circle cx="251.97" cy="200.69" r="1.91" style="fill: rgb(38, 50, 56); transform-origin: 251.97px 200.69px;" id="elwvd8ba41hup" class="animable"></circle><circle cx="251.31" cy="211.49" r="1.91" style="fill: rgb(38, 50, 56); transform-origin: 251.31px 211.49px;" id="el25cj2k4lmwl" class="animable"></circle><rect x="152.08" y="276.07" width="85.56" height="51.84" style="fill: rgb(64, 123, 255); transform-origin: 194.86px 301.99px;" id="elb5l759v7r5r" class="animable"></rect><g id="elv2jgboy3up"><rect x="152.08" y="276.07" width="85.56" height="24.41" style="opacity: 0.1; transform-origin: 194.86px 288.275px;" class="animable"></rect></g><rect x="150.06" y="268.45" width="89.61" height="24.19" style="fill: rgb(64, 123, 255); transform-origin: 194.865px 280.545px;" id="el3q1vilhmd2x" class="animable"></rect><polygon points="213.73 254.65 213.73 268.45 207.24 268.45 207.24 260.6 182.49 260.6 182.49 268.45 176 268.45 176 254.65 213.73 254.65" style="fill: rgb(38, 50, 56); transform-origin: 194.865px 261.55px;" id="elsm20zhxykx8" class="animable"></polygon><rect x="162.36" y="286.87" width="5.84" height="11.56" style="fill: rgb(38, 50, 56); transform-origin: 165.28px 292.65px;" id="el87dy5rhoza4" class="animable"></rect><rect x="221.53" y="286.87" width="5.84" height="11.56" style="fill: rgb(38, 50, 56); transform-origin: 224.45px 292.65px;" id="elyiex2q6j1ip" class="animable"></rect><path d="M230.89,144.71c-21.47,14.77-37,37.91-38.46,42.8-3.61,11.83-9,32.7-9.83,42.07-.31,3.46,26.39,2.81,26.84-.88,1.39-11.56,6.36-36.72,6.49-37.15.89-3,8.46-16.22,16.25-30.55S239.92,138.5,230.89,144.71Z" style="fill: rgb(173, 99, 89); transform-origin: 210.225px 187.229px;" id="elrkn2kvr0evs" class="animable"></path><path d="M207.31,265.21a4.15,4.15,0,0,1-4.5-1.47,6.16,6.16,0,0,1-3.58,2.14c-2.51.37-4.18-3.4-4.18-3.4a7.62,7.62,0,0,1-4.14,1.66c-2.44.1-4.66-3.46-4.66-3.46a6.7,6.7,0,0,1-4.57-.84c-2.3-1.49-3.44-8.85-3.4-13s4-15.86,4.56-18.17l26.6,0s5.11,18.63,4.37,23.5C213.19,256.3,210.37,264.17,207.31,265.21Z" style="fill: rgb(173, 99, 89); transform-origin: 196.081px 247.288px;" id="elbnep4zxjjr4" class="animable"></path><path d="M203.24,263.56c1.71-4.2,2.08-8.68,2.7-13.12,0-.1-.14-.12-.15,0-.57,4.42-2,8.68-2.76,13.08A.11.11,0,0,0,203.24,263.56Z" style="fill: rgb(38, 50, 56); transform-origin: 204.485px 256.991px;" id="eltegd898kk2m" class="animable"></path><path d="M195.4,262.39a11.64,11.64,0,0,0,.49-3.05q.13-1.63.24-3.27.18-3.28.2-6.58c0-.09-.14-.12-.15,0-.13,2.18-.29,4.36-.51,6.54-.11,1.09-.23,2.17-.35,3.26a13.85,13.85,0,0,0-.22,3.08A.16.16,0,0,0,195.4,262.39Z" style="fill: rgb(38, 50, 56); transform-origin: 195.709px 255.948px;" id="elm05kqn4d2v" class="animable"></path><path d="M186.25,260.59a8,8,0,0,0,.3-2.77q0-1.5.12-3c.09-2,.19-4,.35-6a.08.08,0,0,0-.15,0c-.18,2-.38,4-.54,6.07-.08,1-.15,2-.22,3a8,8,0,0,0,0,2.72S186.24,260.63,186.25,260.59Z" style="fill: rgb(38, 50, 56); transform-origin: 186.507px 254.691px;" id="elintvl9f0zxa" class="animable"></path><path d="M210.71,229l-29.18-2.35s6.43-31.43,9.91-39.92,25.62-33.33,38.64-42.42c12.25-8.54,11.87-.67,6.18,10.52s-19.08,36.78-19.72,38.8S210.71,229,210.71,229Z" style="fill: rgb(55, 71, 79); transform-origin: 210.804px 184.85px;" id="elwmpmhx0w1c" class="animable"></path><path d="M210.19,223c-1.09-.25-2.23-.29-3.33-.44s-2.23-.26-3.35-.36c-2.15-.2-4.31-.36-6.47-.51l-6.47-.45c-2.22-.15-4.49-.41-6.72-.38-.1,0-.12.14,0,.15,2.2.39,4.47.5,6.7.71l6.57.62c2.2.2,4.39.39,6.59.54,1.08.08,2.16.15,3.24.18s2.18.16,3.27.09C210.29,223.12,210.27,223,210.19,223Z" style="fill: rgb(38, 50, 56); transform-origin: 197.015px 222.014px;" id="el3qtdk1gh3cb" class="animable"></path><path d="M238.8,139.16c-.62,2-1.29,4.07-1.93,6.1s-1.35,4.05-2,6.08l-.29-.48c1.52.17,3,.3,4.55.49l4.55.52.77.09-.46.64c-1.93,2.67-3.84,5.36-5.83,8l-.08-.64c3.18,2.71,6.4,5.38,9.53,8.14s6.3,5.49,9.39,8.31q-5-3.82-9.83-7.78c-3.28-2.6-6.47-5.29-9.7-7.94l-.34-.28.26-.37c1.92-2.69,3.9-5.33,5.87-8l.31.72L239,152.2c-1.52-.18-3-.42-4.54-.62l-.45-.07.16-.41c.76-2,1.5-4,2.27-6S238,141.13,238.8,139.16Z" style="fill: rgb(38, 50, 56); transform-origin: 245.505px 157.785px;" id="elp0557tdks6" class="animable"></path><path d="M259,140.78c.51.91,1,1.82,1.48,2.74s1,1.82,1.45,2.75l2.83,5.54.33.65-.74,0-4.48-.22.39-.8c1.59,1.81,3.18,3.61,4.74,5.43l.19.23-.11.28c-1.28,3.2-2.59,6.4-3.95,9.57s-2.72,6.36-4.16,9.5q1.68-4.91,3.51-9.76t3.7-9.67l.08.5c-1.59-1.8-3.15-3.63-4.72-5.45l-.76-.88,1.15.09,4.47.33-.41.61-2.54-5.68c-.43-.94-.83-1.9-1.24-2.85S259.39,141.74,259,140.78Z" style="fill: rgb(38, 50, 56); transform-origin: 261.08px 158.615px;" id="el250chu9oban" class="animable"></path><path d="M255,147.44c-3.6,1.08-10.2-4.13-12.95-8.51-.18-.31.1-3.6.26-7.63.08-2.44.12-5.16,0-7.65,0-.51,1.76.33,1.76.33l3.26.59,10.79,2a40,40,0,0,0-.94,9.64,5.32,5.32,0,0,0,.17,1,1.55,1.55,0,0,0,0,.17C257.82,139.26,258.52,146.4,255,147.44Z" style="fill: rgb(173, 99, 89); transform-origin: 250.056px 135.535px;" id="ell8vxhmp45h" class="animable"></path><path d="M257.36,137.17a1.55,1.55,0,0,0,0,.17,9.65,9.65,0,0,1-1.6.18c-10.51.38-12.61-12.89-12.61-12.89l4.16-.06,10.79,2a40,40,0,0,0-.94,9.64A5.32,5.32,0,0,0,257.36,137.17Z" style="fill: rgb(38, 50, 56); transform-origin: 250.625px 131.049px;" id="eldc212ffyx4i" class="animable"></path><path d="M239.06,105.38c-1.31,5.64,2.7,21.4,6.87,24.69,6,4.77,15.41,4.63,19.32-2.52,3.8-6.93-1.79-27.37-6.4-30.31C252.06,92.92,241,97.05,239.06,105.38Z" style="fill: rgb(173, 99, 89); transform-origin: 252.658px 114.42px;" id="el256lkr533pk" class="animable"></path><path d="M255,114.1s-.07.07-.06.12c.3,1,.46,2.31-.41,2.9,0,0,0,.07,0,.06C255.67,116.72,255.44,115.05,255,114.1Z" style="fill: rgb(38, 50, 56); transform-origin: 254.945px 115.64px;" id="elfv89t45f396" class="animable"></path><path d="M253.76,113.23c-1.74.29-1,3.76.59,3.48S255.22,113,253.76,113.23Z" style="fill: rgb(38, 50, 56); transform-origin: 254.004px 114.973px;" id="elw2t4c73ozaa" class="animable"></path><path d="M261,112.88s.09,0,.1.08c.19,1.08.59,2.29,1.63,2.44,0,0,0,.06,0,.06C261.52,115.54,261,113.94,261,112.88Z" style="fill: rgb(38, 50, 56); transform-origin: 261.865px 114.171px;" id="elxcg27z1gbo" class="animable"></path><path d="M261.72,111.57c1.7-.49,2.55,2.94,1,3.39S260.3,112,261.72,111.57Z" style="fill: rgb(38, 50, 56); transform-origin: 262.267px 113.262px;" id="elcn4rccbo83" class="animable"></path><path d="M252.07,111.93c.44-.22.82-.49,1.24-.75s.88-.48,1.12-1a.75.75,0,0,0-.3-.86,1.86,1.86,0,0,0-1.87.19A2.78,2.78,0,0,0,251,111,.8.8,0,0,0,252.07,111.93Z" style="fill: rgb(38, 50, 56); transform-origin: 252.723px 110.568px;" id="el3av09r2mtgw" class="animable"></path><path d="M262.7,109.54a11.64,11.64,0,0,1-1.45-.07,2.35,2.35,0,0,1-1.47-.35.74.74,0,0,1-.14-.9,1.86,1.86,0,0,1,1.74-.72,2.73,2.73,0,0,1,1.84.68A.8.8,0,0,1,262.7,109.54Z" style="fill: rgb(38, 50, 56); transform-origin: 261.498px 108.512px;" id="elw3mwcxzexj" class="animable"></path><path d="M255.27,124.44c.31.2.64.49,1,.44a3,3,0,0,0,1.1-.51,0,0,0,0,1,.06,0,1.5,1.5,0,0,1-1.24.86,1.15,1.15,0,0,1-1-.77C255.15,124.45,255.23,124.41,255.27,124.44Z" style="fill: rgb(38, 50, 56); transform-origin: 256.305px 124.8px;" id="eln5zv573ol0h" class="animable"></path><path d="M255.73,121a3.72,3.72,0,0,0,2.77,1.12,4.62,4.62,0,0,0,1.33-.21l.25-.08.22-.09a.28.28,0,0,0,.17-.28h0a.49.49,0,0,0,0-.11h0l0-.09c-.15-.83-.49-2.07-.49-2.07.33.09,2,.46,1.9,0a56.27,56.27,0,0,0-3.71-10.75.1.1,0,0,0-.19.07c.78,3.42,2.16,6.69,3,10.12a6.34,6.34,0,0,0-1.84-.17c-.11.06.71,2.38.74,2.76a0,0,0,0,1,0,0,5.15,5.15,0,0,1-4-.38C255.72,120.83,255.65,120.92,255.73,121Z" style="fill: rgb(38, 50, 56); transform-origin: 258.791px 115.248px;" id="el63n7jma9viu" class="animable"></path><path d="M238.05,103.58c1.82-8.33,15-10.15,18.86-8.07a10.25,10.25,0,0,1,4.7,5.27s-1.11-1.94-2.52-1.74-1.14,2-2.94,2.94-4.55-.81-7.71.16-4.37,3.91-4.46,6.6,1,12.56-1.13,13.37S236.58,110.32,238.05,103.58Z" style="fill: rgb(38, 50, 56); transform-origin: 249.676px 108.435px;" id="elcyb4s6n9zqf" class="animable"></path><path d="M243.36,118.15s-4.06-4.83-6.29-3.34,1.15,8.72,4,9.5a2.8,2.8,0,0,0,3.61-1.83Z" style="fill: rgb(173, 99, 89); transform-origin: 240.513px 119.497px;" id="elvazual9rc7t" class="animable"></path><path d="M238.09,116.86s-.05.06,0,.08c2,.6,3.17,2.3,4,4.09a1.54,1.54,0,0,0-2.34-.22c-.05,0,0,.12.06.1a1.73,1.73,0,0,1,1.94.43,7.83,7.83,0,0,1,1,1.45c.11.16.41,0,.33-.15l0,0C243,120.14,240.75,116.87,238.09,116.86Z" style="fill: rgb(38, 50, 56); transform-origin: 240.581px 119.858px;" id="el6jirswemlb9" class="animable"></path><path d="M257.5,137.77l-3.9,9.39L242,135.09l-3.37,3.79S249.9,158,250,157.13l4-8.09,5.55,5.72-.29-14.21Z" style="fill: rgb(235, 235, 235); transform-origin: 249.09px 146.124px;" id="elvj062x9a3w" class="animable"></path><path d="M259.76,147.73c-.12-2.35-.18-4.71-.42-7,0-.08-.14-.12-.16,0-.5,2.26,0,11.23,0,13.38l0,0c-.23-.25-5.15-5-5.2-5-.86,1.28-3.78,7.17-4,7.71-1.78-3-8.61-14.07-10.72-16.95-.06-.08-.19,0-.14.08,1.56,3.2,10.59,18.06,10.74,18a93.09,93.09,0,0,0,4.16-8.55c.83,1,5.79,6.44,5.81,6.09A73.42,73.42,0,0,0,259.76,147.73Z" style="fill: rgb(38, 50, 56); transform-origin: 249.505px 148.894px;" id="el5jb9iv7au4b" class="animable"></path></g><g id="freepik--Plant--inject-98" class="animable" style="transform-origin: 91.615px 367.521px;"><path d="M58.27,319.92c3.72-3.64,8.52-8,14.21-6.47,5.34,1.48,7.39,7.31,8.35,12.18,1.23,6.27,2.19,12.6,3.19,18.91s2,12.75,2.87,19.14c.51,3.6,1,7.21,1.53,10.81l.75,5.41c.25,1.77.54,3.54.64,5.32,0,.57-.86.65-1,.11-.69-3-1-6.13-1.41-9.19s-.89-6.14-1.34-9.2q-1.33-9.15-2.73-18.29T80.5,330.38c-.83-5.16-1.22-11.58-5.79-15a8.83,8.83,0,0,0-8.56-.8c-3,1.15-5.42,3.3-7.77,5.44A.08.08,0,0,1,58.27,319.92Z" style="fill: rgb(38, 50, 56); transform-origin: 74.0374px 349.415px;" id="elrja9lcxvg9o" class="animable"></path><path d="M63.36,316.2S71,313.46,74.71,319,74,338.67,39.37,346.63a97.92,97.92,0,0,1,8.32-31.29C55.11,299.16,68.33,305.29,63.36,316.2Z" style="fill: rgb(64, 123, 255); transform-origin: 57.5823px 326.038px;" id="elruft4ci6nj" class="animable"></path><path d="M41.36,344.32a26.25,26.25,0,0,1,1.74-2.81c.58-.89,1.16-1.78,1.75-2.66.45-.67.9-1.33,1.36-2a4,4,0,0,1-.07-.5l-.12-.9c-.08-.65-.18-1.29-.27-1.94s-.2-1.29-.33-1.93a9.89,9.89,0,0,0-.45-2c0-.1.14-.15.15,0a7.7,7.7,0,0,0,.31,1.14c.08.29.16.59.23.88.17.65.33,1.31.48,2s.25,1.23.35,1.84c0,.3.1.59.14.89.62-.88,1.24-1.75,1.89-2.61,1.84-2.42,3.78-4.75,5.8-7l0-.06c-.18-3.64-.09-7.24-.89-10.82,0-.09.12-.15.14-.05A37.34,37.34,0,0,1,54.83,326c.72-.81,1.45-1.61,2.18-2.4q2.54-2.73,5.16-5.35a.08.08,0,0,1,.11.11c-2.91,3.14-5.68,6.41-8.38,9.74a60.77,60.77,0,0,1,6.33.23c2.34.18,4.68.48,7,.8.09,0,.06.17,0,.15a68.42,68.42,0,0,0-7-.63c-2.26-.09-4.51,0-6.76,0q-2.19,2.7-4.32,5.46h.32c.53,0,1.06,0,1.59,0,1.05,0,2.11.1,3.15.19a47.34,47.34,0,0,1,6.39.95.08.08,0,1,1,0,.15c-2.12-.24-4.25-.43-6.39-.51-1,0-2,0-3.06,0H49.51a2.12,2.12,0,0,1-.88-.08c-.93,1.21-1.86,2.41-2.78,3.63-.74,1-1.46,1.94-2.17,2.92s-1.39,2.11-2.2,3.05C41.42,344.48,41.32,344.4,41.36,344.32Z" style="fill: rgb(38, 50, 56); transform-origin: 54.3188px 330.088px;" id="el09wsafxtjjlp" class="animable"></path><path d="M60.05,324.06a22.82,22.82,0,0,1,3.7-.18c1.23,0,2.47,0,3.7.08a.08.08,0,1,1,0,.15c-1.25-.09-2.5-.11-3.75-.09s-2.43.13-3.64.1C60,324.12,60,324.07,60.05,324.06Z" style="fill: rgb(38, 50, 56); transform-origin: 63.7857px 323.997px;" id="elrlo19wjd0u" class="animable"></path><path d="M49.18,326.85c-.14-1.18-.29-2.37-.54-3.53,0-.11.14-.15.15,0,.18,1.17.41,2.32.58,3.49.09.58.17,1.16.24,1.75a8.3,8.3,0,0,1,.14,1.65.1.1,0,0,1-.2,0,9,9,0,0,1-.18-1.64C49.31,328,49.25,327.41,49.18,326.85Z" style="fill: rgb(38, 50, 56); transform-origin: 49.1955px 326.766px;" id="els73u7xspxxd" class="animable"></path><path d="M51.46,313.75c.3,1.15.6,2.32.82,3.49.1.59.19,1.19.28,1.79a7.33,7.33,0,0,1,.11,1.75s-.08.05-.09,0a9.27,9.27,0,0,1-.27-1.66c-.08-.58-.17-1.15-.27-1.72-.21-1.21-.42-2.41-.73-3.59C51.29,313.71,51.44,313.66,51.46,313.75Z" style="fill: rgb(38, 50, 56); transform-origin: 51.9951px 317.253px;" id="el6p1fk8r9zxq" class="animable"></path><path d="M96.52,383.94c.2-2.18.41-4.35.64-6.53.45-4.31,1-8.61,1.56-12.91s1.12-8.57,1.81-12.84a32.17,32.17,0,0,1,1.32-5.83,5.56,5.56,0,0,1,3.23-3.65c4.07-1.4,6.82,2.82,8.46,5.81,0,.09-.08.15-.13.07-1-1.41-3.71-5.39-6.8-5.2-2.07.12-3.74,1.6-4.73,6.78-2.49,12.91-4.73,39.11-5,40.83-.14.91-.78.87-.79-.11C96.09,388.22,96.34,386.08,96.52,383.94Z" style="fill: rgb(38, 50, 56); transform-origin: 104.815px 366.514px;" id="elegib5647xx8" class="animable"></path><path d="M112.45,346.38s-3.56-12.57,4.3-6.28c13.1,10.46,13.57,33.21,13.57,33.21S107,359.79,104.14,350.87C99.83,337.58,112.45,346.38,112.45,346.38Z" style="fill: rgb(64, 123, 255); transform-origin: 116.781px 355.824px;" id="elvxpchkokdcl" class="animable"></path><path d="M108,352.55c1.83.37,3.68.61,5.52.88l2.62.37c.59.08,1.19.13,1.79.21-1.74-2.39-3.49-4.77-5.15-7.21-.06-.09.08-.19.16-.11a52.4,52.4,0,0,1,3.89,4.49c.34-1,.69-1.95,1-2.92.39-1.13.82-2.25,1.11-3.41,0-.09.17-.05.14,0-.31,1.15-.54,2.33-.85,3.48a34.09,34.09,0,0,1-1,3.3c.86,1.11,1.67,2.24,2.47,3.39.4-1.14.9-2.24,1.25-3.39a.08.08,0,0,1,.15.05c-.42,1.27-.65,2.6-1,3.88.54.78,1.07,1.56,1.58,2.35.94,1.45,1.83,2.93,2.69,4.42a.34.34,0,0,1,.21.35c1.47,2.55,2.87,5.13,4.25,7.73a.08.08,0,0,1-.14.08c-1.38-2.57-2.92-5.08-4.52-7.54h0a4.45,4.45,0,0,0-.76-.15l-.81-.17c-.6-.13-1.2-.29-1.79-.44-1.19-.29-2.35-.57-3.55-.78-.1,0-.06-.16,0-.14,1.41.26,2.83.42,4.25.59.67.08,1.34.16,2,.27h.1q-1.26-1.9-2.55-3.78c-.84-1.23-1.71-2.44-2.59-3.65-.8-.11-1.6-.32-2.4-.48l-2.71-.52c-1.8-.36-3.59-.76-5.41-1.06C107.9,352.68,107.94,352.53,108,352.55Z" style="fill: rgb(38, 50, 56); transform-origin: 118.384px 357.664px;" id="el9m34mwnmirg" class="animable"></path><path d="M122,353.79c.11-.33.21-.67.32-1,.22-.7.38-1.4.53-2.11,0-.1.17-.05.15.05-.15.71-.32,1.41-.48,2.12a13.88,13.88,0,0,1-.61,2.09c-.07.16-.32.1-.27-.08C121.77,354.5,121.91,354.14,122,353.79Z" style="fill: rgb(38, 50, 56); transform-origin: 122.318px 352.829px;" id="el9vvts52rzyr" class="animable"></path><path d="M105.66,349.64c1.06.16,2.13.23,3.2.33s2.13.24,3.2.4c.06,0,.06.1,0,.09-1.08-.07-2.14-.15-3.21-.29s-2.12-.3-3.2-.37C105.55,349.79,105.56,349.62,105.66,349.64Z" style="fill: rgb(38, 50, 56); transform-origin: 108.842px 350.05px;" id="ellsnzadj9r3k" class="animable"></path><path d="M79.39,368c.42-9.25,1-18.49,1.93-27.7.47-4.59,1-9.18,1.63-13.74a98.87,98.87,0,0,1,2.65-13.31A25.37,25.37,0,0,1,90,303.91,10.06,10.06,0,0,1,99,300c4,.5,7.3,3.05,10.13,5.82,3.16,3.11,6.06,6.51,9,9.84.74.84,1.47,1.68,2.2,2.54a.07.07,0,1,1-.11.1c-2.87-3.29-5.84-6.49-9-9.54-2.88-2.83-5.84-5.92-9.83-7.09a10.09,10.09,0,0,0-5.71-.13,9.13,9.13,0,0,0-3.9,2.47,20.36,20.36,0,0,0-4.4,8.56c-2.49,8.5-3.38,17.42-4.31,26.2s-1.57,17.87-2,26.83-.8,18-1.67,27c-.1,1.11-.25,2.21-.39,3.32-.09.74-1.25.74-1.19,0C78.55,386.62,79,377.33,79.39,368Z" style="fill: rgb(38, 50, 56); transform-origin: 99.0835px 348.213px;" id="elss5bkuqi0dj" class="animable"></path><path d="M109.61,306.83s-5.28-9.78,1-12.92,27.14,20.19,33.25,54.29c0,0-33.75-14.93-45.21-29.81S100.14,300.24,109.61,306.83Z" style="fill: rgb(64, 123, 255); transform-origin: 119.006px 320.914px;" id="el3ufjlyeu6b2" class="animable"></path><path d="M104.65,314.78c3.8,0,7.58-.29,11.37-.26-.71-.82-1.42-1.63-2.14-2.44a35.91,35.91,0,0,1-3-3.45c0-.08.06-.19.14-.13a28.9,28.9,0,0,1,2.87,2.88c.95,1,1.89,2,2.83,3,1.45,1.57,2.87,3.16,4.29,4.76,0-.15,0-.31,0-.46,0-.66,0-1.33,0-2,0-1.29,0-2.57,0-3.86,0-2.61,0-5.23-.2-7.83,0-.1.15-.1.16,0,.18,2.62.45,5.22.58,7.84.06,1.29.09,2.58.11,3.86,0,.67,0,1.33,0,2,0,.36,0,.74,0,1.11l.67.75c3,3.46,5.9,7,8.7,10.67,0-.2,0-.4.05-.6,0-.4.09-.8.14-1.2.09-.87.21-1.74.34-2.61s.25-1.62.39-2.43.38-1.84.45-2.76c0-.11.17-.09.15,0a26,26,0,0,0-.32,2.78c-.08.84-.15,1.67-.23,2.5s-.15,1.68-.24,2.51c0,.4-.07.8-.12,1.2,0,.2,0,.41-.07.61a1.29,1.29,0,0,1-.16.47l1.44,1.89c1.91,2.53,3.79,5.09,5.67,7.65.06.08-.05.19-.11.11q-2.67-3.48-5.47-6.86c-1.39.06-2.8,0-4.19-.07s-2.93,0-4.39,0a.08.08,0,0,1,0-.16c1.47,0,2.93,0,4.39,0s2.7-.06,4,0c-1.63-2-3.28-4-4.93-5.92L126,326.29a8.77,8.77,0,0,1-1.7.06h-2c-1.25,0-2.5,0-3.74,0-2.58,0-5.16-.12-7.73-.13a.08.08,0,0,1,0-.16c2.58,0,5.16-.14,7.74-.21,1.25,0,2.49-.07,3.74-.08l2,0c.38,0,.77,0,1.15,0-1.41-1.68-2.83-3.37-4.25-5a.24.24,0,0,1-.08-.09q-2.07-2.46-4.16-4.89c-.19-.22-.39-.43-.58-.66-3.93.13-7.86-.13-11.79-.06C104.55,314.94,104.55,314.78,104.65,314.78Z" style="fill: rgb(38, 50, 56); transform-origin: 121.552px 323.141px;" id="eliozfdutgcad" class="animable"></path><path d="M106.59,321.48h.92a.07.07,0,0,1,0,.14h-.92A.08.08,0,0,1,106.59,321.48Z" style="fill: rgb(38, 50, 56); transform-origin: 107.064px 321.55px;" id="eld1k9bqdylds" class="animable"></path><path d="M108.64,321.5l3.64-.08,1.82-.06a6.9,6.9,0,0,1,1.7,0c.06,0,0,.1,0,.11a6.47,6.47,0,0,1-1.7.12l-1.83,0c-1.21,0-2.42,0-3.64,0A.08.08,0,1,1,108.64,321.5Z" style="fill: rgb(38, 50, 56); transform-origin: 112.158px 321.463px;" id="el972gngsjdc" class="animable"></path><path d="M119.24,332.88a52,52,0,0,1,7.47-.67s0,.05,0,.06c-2.48.23-5,.37-7.43.77C119.18,333.05,119.15,332.9,119.24,332.88Z" style="fill: rgb(38, 50, 56); transform-origin: 122.948px 332.625px;" id="el4t3b29m5vt4" class="animable"></path><path d="M129.39,322c0-.22.05-.44.08-.65.06-.49.14-1,.21-1.46.15-.93.31-1.86.49-2.78,0-.08.16-.06.15,0-.12.95-.22,1.91-.31,2.86l-.12,1.41a4,4,0,0,1-.19,1.34.18.18,0,0,1-.33,0A1.83,1.83,0,0,1,129.39,322Z" style="fill: rgb(38, 50, 56); transform-origin: 129.832px 319.943px;" id="elmxy5nvhoykr" class="animable"></path><path d="M79.73,294.27c1.2-2.25,2.74-5.22,5.76-5,2.48.15,3.61,2.69,4.14,4.79,1.64,6.5,1.76,13.35,2.08,20,.68,14.07,1.28,28.15,1.37,42.24,0,3.9,0,7.8,0,11.71s0,8-.28,12a.3.3,0,0,1-.59,0c0-3.4.1-6.81.11-10.22s0-6.64-.06-10q-.17-10.1-.54-20.19c-.25-6.68-.54-13.37-.82-20.05-.15-3.34-.29-6.68-.44-10s-.28-6.47-.65-9.69c-.21-1.8-.48-3.61-.85-5.38a7.52,7.52,0,0,0-1.56-3.61,3.4,3.4,0,0,0-4.4-.32,9.3,9.3,0,0,0-3.12,3.89C79.81,294.44,79.68,294.36,79.73,294.27Z" style="fill: rgb(38, 50, 56); transform-origin: 86.3994px 334.757px;" id="elwti8iu7wyhb" class="animable"></path><path d="M80.54,293.19s2.48-8.75-3-4.37C68.42,296.1,68.09,312,68.09,312s16.22-9.42,18.24-15.63C89.33,287.07,80.54,293.19,80.54,293.19Z" style="fill: rgb(64, 123, 255); transform-origin: 77.522px 299.796px;" id="elz192qxnsvn" class="animable"></path><path d="M71.51,305.46c.14-.25.3-.48.46-.72a4.69,4.69,0,0,1,0-.75c0-.38,0-.75,0-1.13,0-.74,0-1.48-.08-2.22,0-.1.15-.09.16,0,0,.72.07,1.45.09,2.17l0,1.09c0,.14,0,.31,0,.47.63-1,1.29-2,2-2.93l.6-.83a16.94,16.94,0,0,0,0-2.85c0-1,0-2-.06-3.06,0-.1.15-.09.16,0,0,1.06.08,2.11.13,3.17a19.07,19.07,0,0,1,.06,2.27C76.67,298,78.33,296,80,293.93c.06-.07.18,0,.12.1q-1.56,2-3,4c1.9-.45,3.84-.7,5.78-1,.1,0,.14.13,0,.15-2,.31-4.07.82-6.09,1.27h0q-1.17,1.65-2.31,3.3l-.92,1.35h.09l.63-.08c.45-.06.9-.09,1.35-.13.93-.07,1.87-.12,2.8-.17.1,0,.1.15,0,.15-.92,0-1.84.09-2.76.19l-1.45.18-.63.07-.18,0c-.52.77-1.05,1.53-1.56,2.3-.92,1.35-1.74,2.8-2.71,4.11a.08.08,0,0,1-.13-.08A40.23,40.23,0,0,1,71.51,305.46Z" style="fill: rgb(38, 50, 56); transform-origin: 76.0091px 301.821px;" id="eleidd23azy36" class="animable"></path><path d="M75.54,295.57v-1a15.4,15.4,0,0,0-.09-2.15.08.08,0,1,1,.16,0c0,.71.07,1.42.11,2.13,0,.35,0,.71,0,1.06,0,.17,0,.33,0,.49a1.44,1.44,0,0,1,0,.51.07.07,0,0,1-.14,0,1.49,1.49,0,0,1,0-.47Z" style="fill: rgb(38, 50, 56); transform-origin: 75.5964px 294.51px;" id="elfhf2zdkwsat" class="animable"></path><path d="M77.55,299.19c.6-.1,1.22-.13,1.83-.18s1.33-.12,2-.2a.08.08,0,1,1,0,.15c-1.28.08-2.56.31-3.84.36C77.49,299.32,77.48,299.21,77.55,299.19Z" style="fill: rgb(38, 50, 56); transform-origin: 79.4939px 299.062px;" id="el6ftch9qsrpr" class="animable"></path><path d="M72.45,299.25c0,.06,0,.26,0,.33v.9c0,.2,0,.41,0,.61a1.4,1.4,0,0,1,0,.54,0,0,0,0,1-.06,0,.42.42,0,0,1,0-.25v-.89c0-.21,0-.41,0-.62v-.28c0-.08,0-.26,0-.34S72.56,299.1,72.45,299.25Z" style="fill: rgb(38, 50, 56); transform-origin: 72.429px 300.396px;" id="ely3moeev0tyl" class="animable"></path><path d="M79.35,341c3.41-2.56,6.47-6.24,11.06-6.42,3.79-.15,6.44,2.7,8,5.87a33.5,33.5,0,0,1,1.85,5.23c.69,2.4,1.33,4.8,1.93,7.22q1.78,7.14,3,14.39c.46,2.69.89,5.4,1.23,8.11a68,68,0,0,1,.8,8.3.43.43,0,0,1-.85.09c-.46-2.27-.65-4.61-1-6.9s-.68-4.61-1.07-6.9q-1.17-6.9-2.72-13.72c-1-4.29-1.94-8.64-3.32-12.82-1-3-2.59-6.5-5.82-7.57-4.92-1.64-9.39,2.53-13,5.23C79.38,341.15,79.27,341,79.35,341Z" style="fill: rgb(38, 50, 56); transform-origin: 93.2709px 359.351px;" id="elyggq97kfzma" class="animable"></path><path d="M82.88,338.53s3.14-9-1.41-10.74c-6.81-2.64-24.65,17.45-21.15,48.23,0,0,13.78-7.59,23.95-16.13s12.78-19.7,8.3-22.58S82.88,338.53,82.88,338.53Z" style="fill: rgb(64, 123, 255); transform-origin: 77.2741px 351.789px;" id="eldenbkhb4p7" class="animable"></path><path d="M62.37,369.42a23.71,23.71,0,0,1,1.66-3.1c.58-1.05,1.17-2.1,1.78-3.14,1.19-2,2.36-4.06,3.58-6.07l.59-1c0-.12,0-.24-.07-.36l-.2-.89c-.16-.67-.27-1.34-.4-2-.24-1.31-.47-2.65-.83-3.94,0-.1.13-.13.16,0,.28,1.32.69,2.61,1.08,3.9.19.64.4,1.27.56,1.91l.18.66c1.46-2.4,3-4.79,4.56-7.1a3.16,3.16,0,0,1-.16-1c0-.45-.1-.9-.16-1.35-.12-1-.23-2-.38-3a58.33,58.33,0,0,0-1.08-5.9c0-.1.13-.12.15,0,.49,1.94,1,3.88,1.4,5.84.18,1,.35,1.94.48,2.91.06.48.11,1,.16,1.46l.06.44c.49-.7,1-1.4,1.5-2.08,1.58-2.07,3.21-4.09,4.86-6.1.06-.08.19,0,.12.09a108.29,108.29,0,0,0-7.75,11.32L72.88,353l.45,0c.57-.08,1.16-.11,1.73-.17q1.74-.17,3.48-.3c2.33-.18,4.65-.33,7-.57.1,0,.13.14,0,.15-2.35.27-4.68.64-7,1l-3.45.46a13.63,13.63,0,0,1-2.66.27c-.91,1.49-1.83,3-2.74,4.45.2,0,.41,0,.62,0H73.6c1.5,0,3,0,4.49,0,.1,0,.08.15,0,.15-1.51,0-3,.1-4.53.18l-2.16.13-1.07.08a2.33,2.33,0,0,1-1,0q-1.15,1.89-2.33,3.78c-.71,1.16-1.43,2.32-2.17,3.47a27,27,0,0,1-2.33,3.51C62.46,369.57,62.34,369.52,62.37,369.42Z" style="fill: rgb(38, 50, 56); transform-origin: 73.9959px 353.274px;" id="elizkzg4kcpxp" class="animable"></path><path d="M68.94,344.55a21.08,21.08,0,0,0,.62,2.92c.25,1,.54,2,.86,3a.1.1,0,1,1-.18.06c-.31-1-.58-1.95-.82-2.93s-.39-2-.63-3C68.76,344.47,68.93,344.44,68.94,344.55Z" style="fill: rgb(38, 50, 56); transform-origin: 69.6132px 347.556px;" id="elqmop7u4byic" class="animable"></path><path d="M79.07,350.56a1.1,1.1,0,0,1,.75-.28l1.3-.18c.8-.11,1.61-.2,2.42-.29,1.68-.2,3.36-.36,5-.58.1,0,.13.15,0,.16-1.59.19-3.16.43-4.74.64-.78.1-1.55.21-2.33.3l-1.12.13a4,4,0,0,0-1.28.21C79.07,350.71,79,350.61,79.07,350.56Z" style="fill: rgb(38, 50, 56); transform-origin: 83.8327px 349.955px;" id="elnqrlcmsov6f" class="animable"></path><path d="M69,364.09c.79-.06,1.59-.09,2.38-.11l1.2,0,.58,0a3.74,3.74,0,0,0,.75,0c.11,0,.13.17,0,.15a4.1,4.1,0,0,0-.7,0l-.63,0-1.2.07c-.79,0-1.59.1-2.39.1C68.88,364.26,68.87,364.1,69,364.09Z" style="fill: rgb(38, 50, 56); transform-origin: 71.4526px 364.14px;" id="el4b6913gjxqb" class="animable"></path><path d="M64.11,360.65c-.09-.45-.18-.9-.26-1.35-.17-.89-.33-1.78-.49-2.67,0-.09.13-.12.15,0,.2.86.39,1.73.59,2.59.09.43.19.86.28,1.3,0,.2.08.4.13.6a1.7,1.7,0,0,1,.07.63c0,.08-.12.14-.17.06A3.15,3.15,0,0,1,64.11,360.65Z" style="fill: rgb(38, 50, 56); transform-origin: 63.9725px 359.199px;" id="el1zpd5n1dt5v" class="animable"></path><polygon points="67.95 387.18 68.37 399.8 70.98 447.45 113.42 447.45 116.02 399.8 116.45 387.18 67.95 387.18" style="fill: rgb(55, 71, 79); transform-origin: 92.2px 417.315px;" id="elv18qnxyfw0a" class="animable"></polygon><polygon points="67.95 387.18 68.37 399.8 116.02 399.8 116.45 387.18 67.95 387.18" style="fill: rgb(38, 50, 56); transform-origin: 92.2px 393.49px;" id="elfei2oi68j89" class="animable"></polygon><g id="ell3v2qsikun9"><rect x="62.39" y="378.18" width="59.61" height="12.73" style="fill: rgb(55, 71, 79); transform-origin: 92.195px 384.545px; transform: rotate(180deg);" class="animable"></rect></g></g><defs>     <filter id="active" height="200%">         <feMorphology in="SourceAlpha" result="DILATED" operator="dilate" radius="2"></feMorphology>                <feFlood flood-color="#32DFEC" flood-opacity="1" result="PINK"></feFlood>        <feComposite in="PINK" in2="DILATED" operator="in" result="OUTLINE"></feComposite>        <feMerge>            <feMergeNode in="OUTLINE"></feMergeNode>            <feMergeNode in="SourceGraphic"></feMergeNode>        </feMerge>    </filter>    <filter id="hover" height="200%">        <feMorphology in="SourceAlpha" result="DILATED" operator="dilate" radius="2"></feMorphology>                <feFlood flood-color="#ff0000" flood-opacity="0.5" result="PINK"></feFlood>        <feComposite in="PINK" in2="DILATED" operator="in" result="OUTLINE"></feComposite>        <feMerge>            <feMergeNode in="OUTLINE"></feMergeNode>            <feMergeNode in="SourceGraphic"></feMergeNode>        </feMerge>            <feColorMatrix type="matrix" values="0   0   0   0   0                0   1   0   0   0                0   0   0   0   0                0   0   0   1   0 "></feColorMatrix>    </filter></defs></svg>